<?xml version="1.0" encoding="UTF-8" standalone="no"?>
<svg width="412px" height="219px" viewBox="0 0 412 219" version="1.1" xmlns="http://www.w3.org/2000/svg" xmlns:xlink="http://www.w3.org/1999/xlink" xmlns:sketch="http://www.bohemiancoding.com/sketch/ns">
    <!-- Generator: Sketch 3.3 (11970) - http://www.bohemiancoding.com/sketch -->
    <title>icon-label-troque</title>
    <desc>Created with Sketch.</desc>
    <defs></defs>
    <g id="-Page-1" stroke="none" stroke-width="1" fill="none" fill-rule="evenodd" sketch:type="MSPage">
        <g id="-dashboard" sketch:type="MSArtboardGroup" transform="translate(-115.000000, -549.000000)">
            <g id="btn.troca-pontos" sketch:type="MSLayerGroup" transform="translate(30.000000, 511.000000)">
                <g id="icon-label-troque" transform="translate(85.000000, 0.000000)" sketch:type="MSShapeGroup">
                    <g id="coin-pillas" transform="translate(41.000000, 62.000000)" stroke="#417505">
                        <g id="coin-pillas-4" transform="translate(37.000000, 16.000000)">
                            <path d="M47.9956883,18.9761607 C47.7507515,23.9758833 37.1013098,28 24,28 C10.8986902,28 0.24924864,23.9758834 0.00431174065,18.9761608 L0,9.58681522 L22.0875319,9.62878315 C22.7184731,9.60971492 23.3562769,9.6 24,9.6 C24.7255495,9.6 25.4435793,9.61234171 26.1527387,9.63650734 L48,9.67801874 L48,18.9761607 Z" id="Oval-2" stroke-width="2" fill="#FFFFFF"></path>
                            <path d="M38.8,16.4 L38.8,22.8" id="Line" stroke-width="0.8" stroke-linecap="round" stroke-linejoin="round" fill="#D8D8D8"></path>
                            <path d="M41.2,15.6 L41.2,22" id="Line-2" stroke-width="0.8" stroke-linecap="round" stroke-linejoin="round" fill="#D8D8D8"></path>
                            <path d="M43.6,14.8 L43.6,21.2" id="Line-3" stroke-width="0.8" stroke-linecap="round" stroke-linejoin="round" fill="#D8D8D8"></path>
                            <path d="M46,13.2 L46,19.6" id="Line-4" stroke-width="0.8" stroke-linecap="round" stroke-linejoin="round" fill="#D8D8D8"></path>
                            <ellipse id="Oval-1" stroke-width="2" fill="#FFFFFF" cx="24" cy="9.2" rx="24" ry="9.2"></ellipse>
                        </g>
                        <g id="coin-pillas-2" transform="translate(37.000000, 6.000000)">
                            <path d="M47.9956883,18.9761607 C47.7507515,23.9758833 37.1013098,28 24,28 C10.8986902,28 0.24924864,23.9758834 0.00431174065,18.9761608 L0,9.58681522 L22.0875319,9.62878315 C22.7184731,9.60971492 23.3562769,9.6 24,9.6 C24.7255495,9.6 25.4435793,9.61234171 26.1527387,9.63650734 L48,9.67801874 L48,18.9761607 Z" id="Oval-2" stroke-width="2" fill="#FFFFFF"></path>
                            <path d="M38.8,16.4 L38.8,22.8" id="Line" stroke-width="0.8" stroke-linecap="round" stroke-linejoin="round" fill="#D8D8D8"></path>
                            <path d="M41.2,15.6 L41.2,22" id="Line-2" stroke-width="0.8" stroke-linecap="round" stroke-linejoin="round" fill="#D8D8D8"></path>
                            <path d="M43.6,14.8 L43.6,21.2" id="Line-3" stroke-width="0.8" stroke-linecap="round" stroke-linejoin="round" fill="#D8D8D8"></path>
                            <path d="M46,13.2 L46,19.6" id="Line-4" stroke-width="0.8" stroke-linecap="round" stroke-linejoin="round" fill="#D8D8D8"></path>
                            <ellipse id="Oval-1" stroke-width="2" fill="#FFFFFF" cx="24" cy="9.2" rx="24" ry="9.2"></ellipse>
                        </g>
                        <g id="coin-pillas-5" transform="translate(0.000000, 29.000000)">
                            <path d="M47.9956883,18.9761607 C47.7507515,23.9758833 37.1013098,28 24,28 C10.8986902,28 0.24924864,23.9758834 0.00431174065,18.9761608 L0,9.58681522 L22.0875319,9.62878315 C22.7184731,9.60971492 23.3562769,9.6 24,9.6 C24.7255495,9.6 25.4435793,9.61234171 26.1527387,9.63650734 L48,9.67801874 L48,18.9761607 Z" id="Oval-2" stroke-width="2" fill="#FFFFFF"></path>
                            <path d="M38.8,16.4 L38.8,22.8" id="Line" stroke-width="0.8" stroke-linecap="round" stroke-linejoin="round" fill="#D8D8D8"></path>
                            <path d="M41.2,15.6 L41.2,22" id="Line-2" stroke-width="0.8" stroke-linecap="round" stroke-linejoin="round" fill="#D8D8D8"></path>
                            <path d="M43.6,14.8 L43.6,21.2" id="Line-3" stroke-width="0.8" stroke-linecap="round" stroke-linejoin="round" fill="#D8D8D8"></path>
                            <path d="M46,13.2 L46,19.6" id="Line-4" stroke-width="0.8" stroke-linecap="round" stroke-linejoin="round" fill="#D8D8D8"></path>
                            <ellipse id="Oval-1" stroke-width="2" fill="#FFFFFF" cx="24" cy="9.2" rx="24" ry="9.2"></ellipse>
                        </g>
                        <g transform="translate(3.000000, 15.000000)">
                            <path d="M47.9956883,18.9761607 C47.7507515,23.9758833 37.1013098,28 24,28 C10.8986902,28 0.24924864,23.9758834 0.00431174065,18.9761608 L0,9.58681522 L22.0875319,9.62878315 C22.7184731,9.60971492 23.3562769,9.6 24,9.6 C24.7255495,9.6 25.4435793,9.61234171 26.1527387,9.63650734 L48,9.67801874 L48,18.9761607 Z" id="Oval-2" stroke-width="2" fill="#FFFFFF"></path>
                            <path d="M38.8,16.4 L38.8,22.8" id="Line" stroke-width="0.8" stroke-linecap="round" stroke-linejoin="round" fill="#D8D8D8"></path>
                            <path d="M41.2,15.6 L41.2,22" id="Line-2" stroke-width="0.8" stroke-linecap="round" stroke-linejoin="round" fill="#D8D8D8"></path>
                            <path d="M43.6,14.8 L43.6,21.2" id="Line-3" stroke-width="0.8" stroke-linecap="round" stroke-linejoin="round" fill="#D8D8D8"></path>
                            <path d="M46,13.2 L46,19.6" id="Line-4" stroke-width="0.8" stroke-linecap="round" stroke-linejoin="round" fill="#D8D8D8"></path>
                            <ellipse id="Oval-1" stroke-width="2" fill="#FFFFFF" cx="24" cy="9.2" rx="24" ry="9.2"></ellipse>
                        </g>
                        <g id="coin-pillas-3" transform="translate(17.000000, 0.000000)">
                            <path d="M47.9956883,18.9761607 C47.7507515,23.9758833 37.1013098,28 24,28 C10.8986902,28 0.24924864,23.9758834 0.00431174065,18.9761608 L0,9.58681522 L22.0875319,9.62878315 C22.7184731,9.60971492 23.3562769,9.6 24,9.6 C24.7255495,9.6 25.4435793,9.61234171 26.1527387,9.63650734 L48,9.67801874 L48,18.9761607 Z" id="Oval-2" stroke-width="2" fill="#FFFFFF"></path>
                            <path d="M38.8,16.4 L38.8,22.8" id="Line" stroke-width="0.8" stroke-linecap="round" stroke-linejoin="round" fill="#D8D8D8"></path>
                            <path d="M41.2,15.6 L41.2,22" id="Line-2" stroke-width="0.8" stroke-linecap="round" stroke-linejoin="round" fill="#D8D8D8"></path>
                            <path d="M43.6,14.8 L43.6,21.2" id="Line-3" stroke-width="0.8" stroke-linecap="round" stroke-linejoin="round" fill="#D8D8D8"></path>
                            <path d="M46,13.2 L46,19.6" id="Line-4" stroke-width="0.8" stroke-linecap="round" stroke-linejoin="round" fill="#D8D8D8"></path>
                            <ellipse id="Oval-1" stroke-width="2" fill="#FFFFFF" cx="24" cy="9.2" rx="24" ry="9.2"></ellipse>
                        </g>
                    </g>
                    <g id="presente" transform="translate(292.000000, 47.000000)" stroke="#417505">
                        <rect id="Rectangle-24" stroke-width="2" fill="#FFFFFF" x="0.673913043" y="14.7272727" width="77.5434783" height="71.5" rx="1.7826087"></rect>
                        <rect id="Rectangle-27" stroke-width="0.891304348" fill="#417505" x="30.9782609" y="15.6181818" width="16.0434783" height="19.6"></rect>
                        <path d="M16.2834054,1.6649596 C17.015343,1.00650787 18.4040201,0.472727273 19.3884982,0.472727273 L59.5028062,0.472727273 C60.485764,0.472727273 61.8757145,1.00628579 62.607899,1.6649596 L77.1157053,14.716195 C78.2164035,15.7063841 77.9101419,16.5090909 76.4353172,16.5090909 L2.4559872,16.5090909 C0.97952102,16.5090909 0.666607119,15.7138451 1.77559905,14.716195 L16.2834054,1.6649596 Z" id="Rectangle-25" stroke-width="2" fill="#FFFFFF"></path>
                        <path d="M38.1086957,1.36363636 L39.8913043,1.36363636 L47.0217391,15.6181818 L30.9782609,15.6181818 L38.1086957,1.36363636 Z" id="Rectangle-28" stroke-width="0.891304348" fill="#417505"></path>
                        <path d="M9.52763701,75 L25.3567473,75" id="Line" stroke-width="2" stroke-linecap="square"></path>
                        <path d="M9.52763701,71 L25.3567473,71" id="Line-5" stroke-width="2" stroke-linecap="square"></path>
                        <path d="M9.52763701,67 L25.3567473,67" id="Line-6" stroke-width="2" stroke-linecap="square"></path>
                        <path d="M9.23676165,61.1097295 L12.5605729,57.9017513 L15.8843843,60.9510702" id="Path-65" stroke-width="2" stroke-linecap="round" stroke-linejoin="round"></path>
                        <path d="M19.2367616,61.1097295 L22.5605729,57.9017513 L25.8843843,60.9510702" id="Path-66" stroke-width="2" stroke-linecap="round" stroke-linejoin="round"></path>
                    </g>
                    <path d="M245.406655,26.9316406 C203.433014,26.9316406 169.406655,60.9579996 169.406655,102.931641 M237.133217,16 L248.217974,27.0847568 L237.133217,39.0898437" id="Oval-19" stroke="#417505" stroke-width="4" stroke-linecap="round" stroke-linejoin="round" transform="translate(208.812315, 59.465820) rotate(38.000000) translate(-208.812315, -59.465820) "></path>
                    <path d="M164.009191,153.894066 C165.349453,153.964394 166.698913,154 168.05669,154 C210.030331,154 244.05669,119.973641 244.05669,78 M175.084757,142.643594 L164,153.72835 L175.084757,165.733437" id="Oval-20" stroke="#417505" stroke-width="4" stroke-linecap="round" stroke-linejoin="round" transform="translate(204.028345, 121.866719) rotate(-315.000000) translate(-204.028345, -121.866719) "></path>
                    <path d="M150.938,185.716 L143.378,185.716 L143.378,184.276 L160.154,184.276 L160.154,185.716 L152.594,185.716 L152.594,208 L150.938,208 L150.938,185.716 Z M171.062,195.724 C173.174011,195.724 174.787994,195.298004 175.904,194.446 C177.020006,193.593996 177.578,192.292009 177.578,190.54 C177.578,188.763991 177.014006,187.510004 175.886,186.778 C174.757994,186.045996 173.15001,185.68 171.062,185.68 L166.346,185.68 L166.346,195.724 L171.062,195.724 Z M177.83,208 L171.386,197.092 L166.346,197.092 L166.346,208 L164.69,208 L164.69,184.276 L171.494,184.276 C172.670006,184.276 173.737995,184.389999 174.698,184.618 C175.658005,184.846001 176.473997,185.211997 177.146,185.716 C177.818003,186.220003 178.339998,186.867996 178.712,187.66 C179.084002,188.452004 179.27,189.411994 179.27,190.54 C179.27,192.436009 178.724005,193.923995 177.632,195.004 C176.539995,196.084005 175.058009,196.743999 173.186,196.984 L179.738,208 L177.83,208 Z M193.094,208.432 C191.677993,208.432 190.370006,208.138003 189.17,207.55 C187.969994,206.961997 186.938004,206.128005 186.074,205.048 C185.209996,203.967995 184.538002,202.666008 184.058,201.142 C183.577998,199.617992 183.338,197.920009 183.338,196.048 C183.338,194.175991 183.577998,192.490008 184.058,190.99 C184.538002,189.489993 185.209996,188.206005 186.074,187.138 C186.938004,186.069995 187.969994,185.254003 189.17,184.69 C190.370006,184.125997 191.677993,183.844 193.094,183.844 C194.534007,183.844 195.853994,184.125997 197.054,184.69 C198.254006,185.254003 199.285996,186.069995 200.15,187.138 C201.014004,188.206005 201.685998,189.489993 202.166,190.99 C202.646002,192.490008 202.886,194.175991 202.886,196.048 C202.886,197.920009 202.646002,199.617992 202.166,201.142 C201.685998,202.666008 201.014004,203.967995 200.15,205.048 C199.285996,206.128005 198.254006,206.961997 197.054,207.55 C195.853994,208.138003 194.534007,208.432 193.094,208.432 L193.094,208.432 Z M193.094,206.92 C194.294006,206.92 195.385995,206.662003 196.37,206.146 C197.354005,205.629997 198.199996,204.898005 198.908,203.95 C199.616004,203.001995 200.161998,201.862007 200.546,200.53 C200.930002,199.197993 201.122,197.704008 201.122,196.048 C201.122,194.415992 200.930002,192.940007 200.546,191.62 C200.161998,190.299993 199.616004,189.178005 198.908,188.254 C198.199996,187.329995 197.354005,186.616003 196.37,186.112 C195.385995,185.607997 194.294006,185.356 193.094,185.356 C191.893994,185.356 190.796005,185.607997 189.8,186.112 C188.803995,186.616003 187.958003,187.329995 187.262,188.254 C186.565997,189.178005 186.026002,190.299993 185.642,191.62 C185.257998,192.940007 185.066,194.415992 185.066,196.048 C185.066,197.704008 185.257998,199.197993 185.642,200.53 C186.026002,201.862007 186.565997,203.001995 187.262,203.95 C187.958003,204.898005 188.803995,205.629997 189.8,206.146 C190.796005,206.662003 191.893994,206.92 193.094,206.92 L193.094,206.92 Z M208.538,196.048 C208.538,197.704008 208.729998,199.209993 209.114,200.566 C209.498002,201.922007 210.037997,203.073995 210.734,204.022 C211.430003,204.970005 212.275995,205.707997 213.272,206.236 C214.268005,206.764003 215.365994,207.028 216.566,207.028 C217.766006,207.028 218.857995,206.764003 219.842,206.236 C220.826005,205.707997 221.671996,204.970005 222.38,204.022 C223.088004,203.073995 223.633998,201.922007 224.018,200.566 C224.402002,199.209993 224.594,197.704008 224.594,196.048 C224.594,194.415992 224.402002,192.940007 224.018,191.62 C223.633998,190.299993 223.088004,189.178005 222.38,188.254 C221.671996,187.329995 220.826005,186.616003 219.842,186.112 C218.857995,185.607997 217.766006,185.356 216.566,185.356 C215.365994,185.356 214.268005,185.607997 213.272,186.112 C212.275995,186.616003 211.430003,187.329995 210.734,188.254 C210.037997,189.178005 209.498002,190.299993 209.114,191.62 C208.729998,192.940007 208.538,194.415992 208.538,196.048 L208.538,196.048 Z M226.43,213.184 C226.117998,213.28 225.704003,213.37 225.188,213.454 C224.671997,213.538 224.114003,213.58 223.514,213.58 C221.52199,213.58 219.860007,213.088005 218.528,212.104 C217.195993,211.119995 216.230003,209.884007 215.63,208.396 C214.333994,208.275999 213.146005,207.898003 212.066,207.262 C210.985995,206.625997 210.056004,205.774005 209.276,204.706 C208.495996,203.637995 207.890002,202.372007 207.458,200.908 C207.025998,199.443993 206.81,197.824009 206.81,196.048 C206.81,194.175991 207.049998,192.490008 207.53,190.99 C208.010002,189.489993 208.681996,188.206005 209.546,187.138 C210.410004,186.069995 211.441994,185.254003 212.642,184.69 C213.842006,184.125997 215.149993,183.844 216.566,183.844 C218.006007,183.844 219.325994,184.125997 220.526,184.69 C221.726006,185.254003 222.757996,186.069995 223.622,187.138 C224.486004,188.206005 225.157998,189.489993 225.638,190.99 C226.118002,192.490008 226.358,194.175991 226.358,196.048 C226.358,197.824009 226.142002,199.443993 225.71,200.908 C225.277998,202.372007 224.672004,203.637995 223.892,204.706 C223.111996,205.774005 222.176005,206.625997 221.084,207.262 C219.991995,207.898003 218.786007,208.275999 217.466,208.396 C218.018003,209.596006 218.815995,210.507997 219.86,211.132 C220.904005,211.756003 222.169993,212.068 223.658,212.068 C224.210003,212.068 224.671998,212.038 225.044,211.978 C225.416002,211.918 225.757998,211.84 226.07,211.744 L226.43,213.184 Z M231.722,184.276 L233.378,184.276 L233.378,198.712 C233.378,200.296008 233.551998,201.609995 233.9,202.654 C234.248002,203.698005 234.709997,204.537997 235.286,205.174 C235.862003,205.810003 236.527996,206.259999 237.284,206.524 C238.040004,206.788001 238.837996,206.92 239.678,206.92 C240.542004,206.92 241.363996,206.788001 242.144,206.524 C242.924004,206.259999 243.607997,205.810003 244.196,205.174 C244.784003,204.537997 245.257998,203.698005 245.618,202.654 C245.978002,201.609995 246.158,200.296008 246.158,198.712 L246.158,184.276 L247.706,184.276 L247.706,198.892 C247.706,200.740009 247.478002,202.275994 247.022,203.5 C246.565998,204.724006 245.966004,205.701996 245.222,206.434 C244.477996,207.166004 243.626005,207.681999 242.666,207.982 C241.705995,208.282002 240.710005,208.432 239.678,208.432 C238.669995,208.432 237.686005,208.282002 236.726,207.982 C235.765995,207.681999 234.914004,207.166004 234.17,206.434 C233.425996,205.701996 232.832002,204.724006 232.388,203.5 C231.943998,202.275994 231.722,200.740009 231.722,198.892 L231.722,184.276 Z M254.618,184.276 L267.614,184.276 L267.614,185.716 L256.274,185.716 L256.274,194.68 L265.778,194.68 L265.778,196.12 L256.274,196.12 L256.274,206.56 L267.974,206.56 L267.974,208 L254.618,208 L254.618,184.276 Z M12.2539062,230.40625 C15.1836084,230.40625 17.4951087,231.159172 19.1884766,232.665039 C20.8818444,234.170906 21.7285156,236.142566 21.7285156,238.580078 C21.7285156,241.029309 20.8818444,242.998039 19.1884766,244.486328 C17.4951087,245.974617 15.1836084,246.71875 12.2539062,246.71875 L7.9296875,246.71875 L7.9296875,252.396484 L10.671875,252.923828 L10.671875,256 L0.072265625,256 L0.072265625,252.923828 L2.796875,252.396484 L2.796875,234.027344 L0.072265625,233.5 L0.072265625,230.40625 L2.796875,230.40625 L12.2539062,230.40625 Z M7.9296875,242.763672 L12.2539062,242.763672 C13.6836009,242.763672 14.7646448,242.374027 15.4970703,241.594727 C16.2294958,240.815426 16.5957031,239.822272 16.5957031,238.615234 C16.5957031,237.384759 16.2294958,236.368168 15.4970703,235.56543 C14.7646448,234.762691 13.6836009,234.361328 12.2539062,234.361328 L7.9296875,234.361328 L7.9296875,242.763672 Z M23.3457031,233.5 L23.3457031,230.40625 L33.9453125,230.40625 L33.9453125,233.5 L31.203125,234.027344 L31.203125,252.396484 L33.9453125,252.923828 L33.9453125,256 L23.3457031,256 L23.3457031,252.923828 L26.0878906,252.396484 L26.0878906,234.027344 L23.3457031,233.5 Z M35.8964844,256 L35.8964844,252.923828 L38.6210938,252.396484 L38.6210938,234.027344 L35.8964844,233.5 L35.8964844,230.40625 L38.6210938,230.40625 L43.7539062,230.40625 L46.4960938,230.40625 L46.4960938,233.5 L43.7539062,234.027344 L43.7539062,252.0625 L50.9785156,252.0625 L51.2246094,248.845703 L55.1445312,248.845703 L55.1445312,256 L35.8964844,256 Z M56.9902344,256 L56.9902344,252.923828 L59.7148438,252.396484 L59.7148438,234.027344 L56.9902344,233.5 L56.9902344,230.40625 L59.7148438,230.40625 L64.8476562,230.40625 L67.5898438,230.40625 L67.5898438,233.5 L64.8476562,234.027344 L64.8476562,252.0625 L72.0722656,252.0625 L72.3183594,248.845703 L76.2382812,248.845703 L76.2382812,256 L56.9902344,256 Z M77.8203125,252.923828 L79.6484375,252.660156 L87.4355469,230.40625 L92.6914062,230.40625 L100.425781,252.660156 L102.253906,252.923828 L102.253906,256 L93.5351562,256 L93.5351562,252.923828 L95.3105469,252.607422 L94.1855469,249.091797 L85.8886719,249.091797 L84.7636719,252.607422 L86.5390625,252.923828 L86.5390625,256 L77.8203125,256 L77.8203125,252.923828 Z M87.1015625,245.3125 L92.9726562,245.3125 L90.0898438,236.294922 L89.984375,236.294922 L87.1015625,245.3125 Z M123.382812,238.580078 L119.533203,238.580078 L118.865234,235.064453 C118.41992,234.783202 117.769536,234.53711 116.914062,234.326172 C116.058589,234.115233 115.150395,234.009766 114.189453,234.009766 C112.783196,234.009766 111.696293,234.305661 110.928711,234.897461 C110.161129,235.489261 109.777344,236.253902 109.777344,237.191406 C109.777344,238.058598 110.178707,238.770505 110.981445,239.327148 C111.784184,239.883792 113.169912,240.472653 115.138672,241.09375 C117.962905,241.87891 120.104485,242.916009 121.563477,244.205078 C123.022468,245.494147 123.751953,247.18749 123.751953,249.285156 C123.751953,251.476573 122.884774,253.205072 121.150391,254.470703 C119.416007,255.736334 117.130874,256.369141 114.294922,256.369141 C112.267568,256.369141 110.436532,256.046878 108.801758,255.402344 C107.166984,254.757809 105.804693,253.867193 104.714844,252.730469 L104.714844,247.386719 L108.6875,247.386719 L109.232422,251.025391 C109.748049,251.447268 110.448238,251.795897 111.333008,252.071289 C112.217778,252.346681 113.205073,252.484375 114.294922,252.484375 C115.701179,252.484375 116.770504,252.197268 117.50293,251.623047 C118.235355,251.048825 118.601562,250.281255 118.601562,249.320313 C118.601562,248.335933 118.252933,247.544925 117.555664,246.947266 C116.858395,246.349606 115.636727,245.787112 113.890625,245.259766 C110.855454,244.380855 108.558602,243.337897 107,242.130859 C105.441398,240.923822 104.662109,239.271495 104.662109,237.173828 C104.662109,235.099599 105.541007,233.403327 107.298828,232.084961 C109.056649,230.766595 111.265612,230.089844 113.925781,230.054688 C115.894541,230.054688 117.687492,230.353513 119.304688,230.951172 C120.921883,231.548831 122.281244,232.345698 123.382812,233.341797 L123.382812,238.580078 Z M146.779297,230.40625 C149.708999,230.40625 152.020499,231.159172 153.713867,232.665039 C155.407235,234.170906 156.253906,236.142566 156.253906,238.580078 C156.253906,241.029309 155.407235,242.998039 153.713867,244.486328 C152.020499,245.974617 149.708999,246.71875 146.779297,246.71875 L142.455078,246.71875 L142.455078,252.396484 L145.197266,252.923828 L145.197266,256 L134.597656,256 L134.597656,252.923828 L137.322266,252.396484 L137.322266,234.027344 L134.597656,233.5 L134.597656,230.40625 L137.322266,230.40625 L146.779297,230.40625 Z M142.455078,242.763672 L146.779297,242.763672 C148.208992,242.763672 149.290035,242.374027 150.022461,241.594727 C150.754886,240.815426 151.121094,239.822272 151.121094,238.615234 C151.121094,237.384759 150.754886,236.368168 150.022461,235.56543 C149.290035,234.762691 148.208992,234.361328 146.779297,234.361328 L142.455078,234.361328 L142.455078,242.763672 Z M181.285156,243.396484 C181.285156,247.146503 180.212901,250.246082 178.068359,252.695313 C175.923817,255.144543 173.117205,256.369141 169.648438,256.369141 C166.191389,256.369141 163.399425,255.144543 161.272461,252.695313 C159.145497,250.246082 158.082031,247.146503 158.082031,243.396484 L158.082031,243.009766 C158.082031,239.283184 159.142568,236.189465 161.263672,233.728516 C163.384776,231.267566 166.173811,230.037109 169.630859,230.037109 C173.099627,230.037109 175.909169,231.267566 178.05957,233.728516 C180.209972,236.189465 181.285156,239.283184 181.285156,243.009766 L181.285156,243.396484 Z M176.169922,242.974609 C176.169922,240.326159 175.619146,238.17579 174.517578,236.523438 C173.41601,234.871085 171.78712,234.044922 169.630859,234.044922 C167.474599,234.044922 165.866216,234.865226 164.805664,236.505859 C163.745112,238.146493 163.214844,240.302721 163.214844,242.974609 L163.214844,243.396484 C163.214844,246.09181 163.750971,248.262687 164.823242,249.90918 C165.895513,251.555672 167.503896,252.378906 169.648438,252.378906 C171.816417,252.378906 173.445307,251.555672 174.535156,249.90918 C175.625005,248.262687 176.169922,246.09181 176.169922,243.396484 L176.169922,242.974609 Z M194.837891,230.40625 C197.744155,230.40625 200.023429,231.071282 201.675781,232.401367 C203.328133,233.731452 204.154297,235.568348 204.154297,237.912109 C204.154297,239.201178 203.808597,240.320308 203.117188,241.269531 C202.425778,242.218755 201.412116,242.986325 200.076172,243.572266 C201.587898,244.01758 202.674801,244.758784 203.336914,245.795898 C203.999027,246.833013 204.330078,248.119133 204.330078,249.654297 L204.330078,250.955078 C204.330078,251.517581 204.441405,251.9541 204.664062,252.264648 C204.88672,252.575197 205.255857,252.759765 205.771484,252.818359 L206.404297,252.90625 L206.404297,256 L203.75,256 C202.07421,256 200.896488,255.548833 200.216797,254.646484 C199.537106,253.744136 199.197266,252.578132 199.197266,251.148438 L199.197266,249.689453 C199.197266,248.447259 198.866214,247.471683 198.204102,246.762695 C197.541989,246.053707 196.607428,245.681641 195.400391,245.646484 L191.199219,245.646484 L191.199219,252.396484 L193.941406,252.923828 L193.941406,256 L183.341797,256 L183.341797,252.923828 L186.066406,252.396484 L186.066406,234.027344 L183.341797,233.5 L183.341797,230.40625 L186.066406,230.40625 L194.837891,230.40625 Z M191.199219,241.691406 L194.75,241.691406 C196.179695,241.691406 197.25195,241.386722 197.966797,240.777344 C198.681644,240.167966 199.039062,239.289068 199.039062,238.140625 C199.039062,236.992182 198.684574,236.075199 197.975586,235.389648 C197.266598,234.704098 196.22071,234.361328 194.837891,234.361328 L191.199219,234.361328 L191.199219,241.691406 Z M229.097656,230.40625 C232.027358,230.40625 234.338859,231.159172 236.032227,232.665039 C237.725594,234.170906 238.572266,236.142566 238.572266,238.580078 C238.572266,241.029309 237.725594,242.998039 236.032227,244.486328 C234.338859,245.974617 232.027358,246.71875 229.097656,246.71875 L224.773438,246.71875 L224.773438,252.396484 L227.515625,252.923828 L227.515625,256 L216.916016,256 L216.916016,252.923828 L219.640625,252.396484 L219.640625,234.027344 L216.916016,233.5 L216.916016,230.40625 L219.640625,230.40625 L229.097656,230.40625 Z M224.773438,242.763672 L229.097656,242.763672 C230.527351,242.763672 231.608395,242.374027 232.34082,241.594727 C233.073246,240.815426 233.439453,239.822272 233.439453,238.615234 C233.439453,237.384759 233.073246,236.368168 232.34082,235.56543 C231.608395,234.762691 230.527351,234.361328 229.097656,234.361328 L224.773438,234.361328 L224.773438,242.763672 Z M251.703125,230.40625 C254.60939,230.40625 256.888664,231.071282 258.541016,232.401367 C260.193368,233.731452 261.019531,235.568348 261.019531,237.912109 C261.019531,239.201178 260.673832,240.320308 259.982422,241.269531 C259.291012,242.218755 258.27735,242.986325 256.941406,243.572266 C258.453133,244.01758 259.540036,244.758784 260.202148,245.795898 C260.864261,246.833013 261.195312,248.119133 261.195312,249.654297 L261.195312,250.955078 C261.195312,251.517581 261.30664,251.9541 261.529297,252.264648 C261.751954,252.575197 262.121091,252.759765 262.636719,252.818359 L263.269531,252.90625 L263.269531,256 L260.615234,256 C258.939445,256 257.761722,255.548833 257.082031,254.646484 C256.40234,253.744136 256.0625,252.578132 256.0625,251.148438 L256.0625,249.689453 C256.0625,248.447259 255.731449,247.471683 255.069336,246.762695 C254.407223,246.053707 253.472662,245.681641 252.265625,245.646484 L248.064453,245.646484 L248.064453,252.396484 L250.806641,252.923828 L250.806641,256 L240.207031,256 L240.207031,252.923828 L242.931641,252.396484 L242.931641,234.027344 L240.207031,233.5 L240.207031,230.40625 L242.931641,230.40625 L251.703125,230.40625 Z M248.064453,241.691406 L251.615234,241.691406 C253.044929,241.691406 254.117184,241.386722 254.832031,240.777344 C255.546879,240.167966 255.904297,239.289068 255.904297,238.140625 C255.904297,236.992182 255.549808,236.075199 254.84082,235.389648 C254.131832,234.704098 253.085944,234.361328 251.703125,234.361328 L248.064453,234.361328 L248.064453,241.691406 Z M288.353516,243.396484 C288.353516,247.146503 287.281261,250.246082 285.136719,252.695313 C282.992177,255.144543 280.185564,256.369141 276.716797,256.369141 C273.259748,256.369141 270.467784,255.144543 268.34082,252.695313 C266.213857,250.246082 265.150391,247.146503 265.150391,243.396484 L265.150391,243.009766 C265.150391,239.283184 266.210927,236.189465 268.332031,233.728516 C270.453136,231.267566 273.24217,230.037109 276.699219,230.037109 C280.167986,230.037109 282.977528,231.267566 285.12793,233.728516 C287.278331,236.189465 288.353516,239.283184 288.353516,243.009766 L288.353516,243.396484 Z M283.238281,242.974609 C283.238281,240.326159 282.687506,238.17579 281.585938,236.523438 C280.484369,234.871085 278.85548,234.044922 276.699219,234.044922 C274.542958,234.044922 272.934576,234.865226 271.874023,236.505859 C270.813471,238.146493 270.283203,240.302721 270.283203,242.974609 L270.283203,243.396484 C270.283203,246.09181 270.819331,248.262687 271.891602,249.90918 C272.963873,251.555672 274.572255,252.378906 276.716797,252.378906 C278.884776,252.378906 280.513666,251.555672 281.603516,249.90918 C282.693365,248.262687 283.238281,246.09181 283.238281,243.396484 L283.238281,242.974609 Z M301.923828,230.40625 C305.05275,230.40625 307.630849,231.405263 309.658203,233.40332 C311.685557,235.401377 312.699219,237.964828 312.699219,241.09375 L312.699219,245.330078 C312.699219,248.470719 311.685557,251.03417 309.658203,253.020508 C307.630849,255.006846 305.05275,256 301.923828,256 L290.410156,256 L290.410156,252.923828 L293.134766,252.396484 L293.134766,234.027344 L290.410156,233.5 L290.410156,230.40625 L293.134766,230.40625 L301.923828,230.40625 Z M298.267578,234.361328 L298.267578,252.0625 L301.660156,252.0625 C303.500009,252.0625 304.941401,251.441412 305.984375,250.199219 C307.027349,248.957025 307.548828,247.333994 307.548828,245.330078 L307.548828,241.058594 C307.548828,239.078115 307.027349,237.466803 305.984375,236.224609 C304.941401,234.982416 303.500009,234.361328 301.660156,234.361328 L298.267578,234.361328 Z M325.513672,230.40625 L325.513672,233.5 L322.771484,234.027344 L322.771484,247.386719 C322.771484,249.074227 323.225581,250.33691 324.133789,251.174805 C325.041997,252.0127 326.287101,252.431641 327.869141,252.431641 C329.474617,252.431641 330.73437,252.015629 331.648438,251.183594 C332.562505,250.351558 333.019531,249.085946 333.019531,247.386719 L333.019531,234.027344 L330.294922,233.5 L330.294922,230.40625 L340.894531,230.40625 L340.894531,233.5 L338.152344,234.027344 L338.152344,247.386719 C338.152344,250.257827 337.206064,252.472648 335.313477,254.03125 C333.420889,255.589852 330.939468,256.369141 327.869141,256.369141 C324.810532,256.369141 322.34083,255.589852 320.459961,254.03125 C318.579092,252.472648 317.638672,250.257827 317.638672,247.386719 L317.638672,234.027344 L314.914062,233.5 L314.914062,230.40625 L317.638672,230.40625 L322.771484,230.40625 L325.513672,230.40625 Z M364.941406,230.40625 L364.941406,237.226563 L361.003906,237.226563 L360.792969,234.361328 L356.082031,234.361328 L356.082031,252.396484 L358.824219,252.923828 L358.824219,256 L348.207031,256 L348.207031,252.923828 L350.949219,252.396484 L350.949219,234.361328 L346.255859,234.361328 L346.044922,237.226563 L342.125,237.226563 L342.125,230.40625 L364.941406,230.40625 Z M390.007812,243.396484 C390.007812,247.146503 388.935558,250.246082 386.791016,252.695313 C384.646474,255.144543 381.839861,256.369141 378.371094,256.369141 C374.914045,256.369141 372.122081,255.144543 369.995117,252.695313 C367.868153,250.246082 366.804688,247.146503 366.804688,243.396484 L366.804688,243.009766 C366.804688,239.283184 367.865224,236.189465 369.986328,233.728516 C372.107432,231.267566 374.896467,230.037109 378.353516,230.037109 C381.822283,230.037109 384.631825,231.267566 386.782227,233.728516 C388.932628,236.189465 390.007812,239.283184 390.007812,243.009766 L390.007812,243.396484 Z M384.892578,242.974609 C384.892578,240.326159 384.341802,238.17579 383.240234,236.523438 C382.138666,234.871085 380.509776,234.044922 378.353516,234.044922 C376.197255,234.044922 374.588872,234.865226 373.52832,236.505859 C372.467768,238.146493 371.9375,240.302721 371.9375,242.974609 L371.9375,243.396484 C371.9375,246.09181 372.473627,248.262687 373.545898,249.90918 C374.618169,251.555672 376.226552,252.378906 378.371094,252.378906 C380.539073,252.378906 382.167963,251.555672 383.257812,249.90918 C384.347662,248.262687 384.892578,246.09181 384.892578,243.396484 L384.892578,242.974609 Z M411.505859,238.580078 L407.65625,238.580078 L406.988281,235.064453 C406.542967,234.783202 405.892582,234.53711 405.037109,234.326172 C404.181636,234.115233 403.273442,234.009766 402.3125,234.009766 C400.906243,234.009766 399.81934,234.305661 399.051758,234.897461 C398.284176,235.489261 397.900391,236.253902 397.900391,237.191406 C397.900391,238.058598 398.301754,238.770505 399.104492,239.327148 C399.907231,239.883792 401.292959,240.472653 403.261719,241.09375 C406.085952,241.87891 408.227532,242.916009 409.686523,244.205078 C411.145515,245.494147 411.875,247.18749 411.875,249.285156 C411.875,251.476573 411.007821,253.205072 409.273438,254.470703 C407.539054,255.736334 405.25392,256.369141 402.417969,256.369141 C400.390615,256.369141 398.559578,256.046878 396.924805,255.402344 C395.290031,254.757809 393.92774,253.867193 392.837891,252.730469 L392.837891,247.386719 L396.810547,247.386719 L397.355469,251.025391 C397.871096,251.447268 398.571285,251.795897 399.456055,252.071289 C400.340825,252.346681 401.32812,252.484375 402.417969,252.484375 C403.824226,252.484375 404.893551,252.197268 405.625977,251.623047 C406.358402,251.048825 406.724609,250.281255 406.724609,249.320313 C406.724609,248.335933 406.37598,247.544925 405.678711,246.947266 C404.981442,246.349606 403.759774,245.787112 402.013672,245.259766 C398.9785,244.380855 396.681648,243.337897 395.123047,242.130859 C393.564445,240.923822 392.785156,239.271495 392.785156,237.173828 C392.785156,235.099599 393.664054,233.403327 395.421875,232.084961 C397.179696,230.766595 399.388659,230.089844 402.048828,230.054688 C404.017588,230.054688 405.810539,230.353513 407.427734,230.951172 C409.04493,231.548831 410.404291,232.345698 411.505859,233.341797 L411.505859,238.580078 Z" id="TROQUE" fill="#417505"></path>
                </g>
            </g>
        </g>
    </g>
</svg>