<?xml version="1.0" encoding="UTF-8" standalone="no"?>
<svg width="150px" height="144px" viewBox="0 0 150 144" version="1.1" xmlns="http://www.w3.org/2000/svg" xmlns:xlink="http://www.w3.org/1999/xlink" xmlns:sketch="http://www.bohemiancoding.com/sketch/ns">
    <!-- Generator: Sketch 3.3 (11970) - http://www.bohemiancoding.com/sketch -->
    <title>pontos-troca</title>
    <desc>Created with Sketch.</desc>
    <defs></defs>
    <g id="-Page-1" stroke="none" stroke-width="1" fill="none" fill-rule="evenodd" sketch:type="MSPage">
        <g id="-dashboard" sketch:type="MSArtboardGroup" transform="translate(-398.000000, -854.000000)">
            <g id="bt.Findparceiros" sketch:type="MSLayerGroup" transform="translate(335.000000, 829.000000)">
                <g id="Fill-62-+-LOCALIZAR" transform="translate(63.000000, 25.000000)" sketch:type="MSShapeGroup">
                    <g id="pontos-troca">
                        <path d="M110.296169,18.2763362 L102.133738,15.7301859 C101.322412,15.479042 100.459866,15.9302844 100.207863,16.7368035 C99.9558606,17.5433226 100.404548,18.4008873 101.215874,18.6540731 L108.417417,20.8980339 L114.703145,80.4211882 L96.9441201,75.7597117 L95.3276146,42.7332635 C95.2866385,41.8899915 94.5838991,41.2223162 93.7172554,41.3223654 C92.869051,41.3632018 92.2154828,42.1656373 92.2585077,43.0109511 L93.8688668,75.7985063 L74.845731,80.7948414 L74.845731,65.0871154 C74.845731,64.2418017 74.1552844,63.55575 73.3091287,63.55575 C72.4609243,63.55575 71.7725265,64.2418017 71.7725265,65.0871154 L71.7725265,80.1659606 L54.0175997,75.506526 L55.6525445,44.5014801 C55.6976182,43.6582082 55.0481476,42.9374455 54.1999432,42.8925255 C53.3292019,42.8149363 52.6285113,43.4969044 52.5834376,44.3422181 L50.9075168,76.0598594 L34.2999196,80.4211882 L40.587696,20.9000757 L47.7339209,18.6744913 C48.5472957,18.4233473 48.9959836,17.5637408 48.741932,16.7551799 C48.4899292,15.9486607 47.6376272,15.4953766 46.818106,15.7506042 L38.7068949,18.2763362 C38.1209372,18.4560165 37.7009326,18.9685134 37.6353709,19.576976 L31.0074932,82.3078304 C30.9583219,82.8080765 31.1529582,83.3021971 31.5381332,83.6288884 C31.9212594,83.9576215 32.4416553,84.0780889 32.9292704,83.9494542 L51.0591282,79.1899704 L52.583437,78.7734409 L53.816817,78.6203024 L71.7725265,83.3348662 C71.7725265,83.3348662 73.1479454,83.6288907 73.9961498,83.6288907 C74.815671,83.6288907 94.6392168,78.7652717 94.6392168,78.7652717 C94.8850731,78.9898719 95.1657591,79.1613849 95.4812748,79.1613849 C95.8623522,79.1613849 96.1266478,78.9939556 96.3602113,78.773439 L116.073794,83.9494542 C116.20082,83.9821233 116.333992,83.9984579 116.463066,83.9984579 C116.825704,83.9984579 117.182196,83.8698232 117.462882,83.6288884 C117.846008,83.3021971 118.044742,82.8080765 117.991473,82.3078304 L111.369742,19.576976 C111.30418,18.9685134 110.882127,18.4560165 110.296169,18.2763362 Z" id="Fill-62" fill="#417505"></path>
                        <path d="M74.4953857,56.8687875 C78.5991381,56.8687875 97.0117306,33.8329674 97.0117306,22.4457339 C97.0117306,10.0682174 86.9090831,0 74.4953857,0 C62.0816883,0 51.9790407,10.0682174 51.9790407,22.4457339 C51.9790407,33.8329674 70.3936821,56.8687875 74.4953857,56.8687875 Z M74,28 C78.6944204,28 82.5,24.1944204 82.5,19.5 C82.5,14.8055796 78.6944204,11 74,11 C69.3055796,11 65.5,14.8055796 65.5,19.5 C65.5,24.1944204 69.3055796,28 74,28 Z" id="Path" fill="#FFFFFF"></path>
                        <path d="M74.4953857,53.8687875 L74.4953857,53.8687875 C74.2372982,53.8687875 74.1393937,53.8965036 74.1351251,53.8985355 C74.3079264,53.8162799 74.5628209,53.6588356 74.8760001,53.4309513 C75.6150148,52.8932088 76.5514025,52.0581391 77.6079114,50.9859138 C79.8421955,48.718393 82.4293194,45.583849 84.8489918,42.1869454 C90.3888299,34.4097376 94.0117306,26.7990065 94.0117306,22.4457339 C94.0117306,11.7281902 85.2553427,3 74.4953857,3 C63.7354287,3 54.9790407,11.7281902 54.9790407,22.4457339 C54.9790407,26.7988405 58.602167,34.4093649 64.1425067,42.1868876 C66.5622444,45.5837127 69.1494582,48.7183166 71.3837682,50.9859583 C72.4402537,52.0582046 73.3765999,52.8933103 74.1155399,53.4310826 C74.4286799,53.658974 74.6835289,53.8164225 74.8562686,53.898671 C74.8518398,53.8965623 74.7537635,53.8687875 74.4953857,53.8687875 L74.4953857,53.8687875 Z M74.4953857,56.8687875 L74.4953857,56.8687875 C70.3936821,56.8687875 51.9790407,33.8329674 51.9790407,22.4457339 C51.9790407,10.0682174 62.0816883,0 74.4953857,0 C86.9090831,0 97.0117306,10.0682174 97.0117306,22.4457339 C97.0117306,33.8329674 78.5991381,56.8687875 74.4953857,56.8687875 L74.4953857,56.8687875 Z M81.4428265,19.2209214 L81.4428265,19.2209214 C81.4428265,15.4183126 78.3257709,12.3118801 74.4950887,12.3118801 C70.6652574,12.3118801 67.5499937,15.4174612 67.5499937,19.2209214 C67.5499937,23.0139257 70.6653482,26.1167944 74.4950887,26.1167944 C78.3256794,26.1167944 81.4428265,23.0130744 81.4428265,19.2209214 L81.4428265,19.2209214 Z M84.3176772,19.21967 L84.3176772,19.21967 C84.3176772,24.6121835 79.9105749,29 74.4953399,29 C69.0801049,29 64.675143,24.6121835 64.675143,19.21967 C64.675143,13.8186241 69.0801049,9.42867446 74.4953399,9.42867446 C79.9105749,9.42867446 84.3176772,13.8186241 84.3176772,19.21967 L84.3176772,19.21967 Z" id="Shape" fill="#417505"></path>
                        <path d="M35.886,109.138 L36.714,109.138 L36.714,120.28 L42.186,120.28 L42.186,121 L35.886,121 L35.886,109.138 Z M48.414,121.216 C47.7059965,121.216 47.052003,121.069001 46.452,120.775 C45.851997,120.480999 45.3360022,120.064003 44.904,119.524 C44.4719978,118.983997 44.1360012,118.333004 43.896,117.571 C43.6559988,116.808996 43.536,115.960005 43.536,115.024 C43.536,114.087995 43.6559988,113.245004 43.896,112.495 C44.1360012,111.744996 44.4719978,111.103003 44.904,110.569 C45.3360022,110.034997 45.851997,109.627001 46.452,109.345 C47.052003,109.062999 47.7059965,108.922 48.414,108.922 C49.1340036,108.922 49.793997,109.062999 50.394,109.345 C50.994003,109.627001 51.5099978,110.034997 51.942,110.569 C52.3740022,111.103003 52.7099988,111.744996 52.95,112.495 C53.1900012,113.245004 53.31,114.087995 53.31,115.024 C53.31,115.960005 53.1900012,116.808996 52.95,117.571 C52.7099988,118.333004 52.3740022,118.983997 51.942,119.524 C51.5099978,120.064003 50.994003,120.480999 50.394,120.775 C49.793997,121.069001 49.1340036,121.216 48.414,121.216 L48.414,121.216 Z M48.414,120.46 C49.014003,120.46 49.5599975,120.331001 50.052,120.073 C50.5440025,119.814999 50.9669982,119.449002 51.321,118.975 C51.6750018,118.500998 51.947999,117.931003 52.14,117.265 C52.332001,116.598997 52.428,115.852004 52.428,115.024 C52.428,114.207996 52.332001,113.470003 52.14,112.81 C51.947999,112.149997 51.6750018,111.589002 51.321,111.127 C50.9669982,110.664998 50.5440025,110.308001 50.052,110.056 C49.5599975,109.803999 49.014003,109.678 48.414,109.678 C47.813997,109.678 47.2650025,109.803999 46.767,110.056 C46.2689975,110.308001 45.8460017,110.664998 45.498,111.127 C45.1499983,111.589002 44.880001,112.149997 44.688,112.81 C44.495999,113.470003 44.4,114.207996 44.4,115.024 C44.4,115.852004 44.495999,116.598997 44.688,117.265 C44.880001,117.931003 45.1499983,118.500998 45.498,118.975 C45.8460017,119.449002 46.2689975,119.814999 46.767,120.073 C47.2650025,120.331001 47.813997,120.46 48.414,120.46 L48.414,120.46 Z M55.272,115.042 C55.272,114.105995 55.3949988,113.260004 55.641,112.504 C55.8870012,111.747996 56.2319978,111.103003 56.676,110.569 C57.1200022,110.034997 57.6539969,109.627001 58.278,109.345 C58.9020031,109.062999 59.5919962,108.922 60.348,108.922 C61.0320034,108.922 61.6379974,109.065999 62.166,109.354 C62.6940026,109.642001 63.1139984,109.971998 63.426,110.344 L62.922,110.884 C62.6099984,110.523998 62.2380022,110.233001 61.806,110.011 C61.3739978,109.788999 60.8880027,109.678 60.348,109.678 C59.6999968,109.678 59.1150026,109.803999 58.593,110.056 C58.0709974,110.308001 57.6270018,110.664998 57.261,111.127 C56.8949982,111.589002 56.616001,112.149997 56.424,112.81 C56.231999,113.470003 56.136,114.213996 56.136,115.042 C56.136,115.870004 56.231999,116.616997 56.424,117.283 C56.616001,117.949003 56.8919982,118.515998 57.252,118.984 C57.6120018,119.452002 58.0469975,119.814999 58.557,120.073 C59.0670025,120.331001 59.6399968,120.46 60.276,120.46 C60.8880031,120.46 61.4309976,120.340001 61.905,120.1 C62.3790024,119.859999 62.8319978,119.494002 63.264,119.002 L63.768,119.524 C63.3119977,120.052003 62.8020028,120.465999 62.238,120.766 C61.6739972,121.066002 61.0080038,121.216 60.24,121.216 C59.5079963,121.216 58.8360031,121.072001 58.224,120.784 C57.6119969,120.495999 57.0870022,120.085003 56.649,119.551 C56.2109978,119.016997 55.8720012,118.369004 55.632,117.607 C55.3919988,116.844996 55.272,115.990005 55.272,115.042 L55.272,115.042 Z M71.274,116.23 L70.518,114.016 C70.2779988,113.307996 70.0500011,112.630003 69.834,111.982 C69.6179989,111.333997 69.408001,110.644004 69.204,109.912 L69.132,109.912 C68.927999,110.644004 68.7180011,111.333997 68.502,111.982 C68.2859989,112.630003 68.0580012,113.307996 67.818,114.016 L67.062,116.23 L71.274,116.23 Z M71.508,116.932 L66.81,116.932 L65.406,121 L64.578,121 L68.754,109.138 L69.582,109.138 L73.758,121 L72.894,121 L71.508,116.932 Z M75.648,109.138 L76.476,109.138 L76.476,120.28 L81.948,120.28 L81.948,121 L75.648,121 L75.648,109.138 Z M84.054,109.138 L84.882,109.138 L84.882,121 L84.054,121 L84.054,109.138 Z M87.528,120.514 L94.35,109.858 L88.122,109.858 L88.122,109.138 L95.394,109.138 L95.394,109.624 L88.554,120.28 L95.448,120.28 L95.448,121 L87.528,121 L87.528,120.514 Z M103.152,116.23 L102.396,114.016 C102.155999,113.307996 101.928001,112.630003 101.712,111.982 C101.495999,111.333997 101.286001,110.644004 101.082,109.912 L101.01,109.912 C100.805999,110.644004 100.596001,111.333997 100.38,111.982 C100.163999,112.630003 99.9360012,113.307996 99.696,114.016 L98.94,116.23 L103.152,116.23 Z M103.386,116.932 L98.688,116.932 L97.284,121 L96.456,121 L100.632,109.138 L101.46,109.138 L105.636,121 L104.772,121 L103.386,116.932 Z M110.712,114.862 C111.768005,114.862 112.574997,114.649002 113.133,114.223 C113.691003,113.796998 113.97,113.146004 113.97,112.27 C113.97,111.381996 113.688003,110.755002 113.124,110.389 C112.559997,110.022998 111.756005,109.84 110.712,109.84 L108.354,109.84 L108.354,114.862 L110.712,114.862 Z M114.096,121 L110.874,115.546 L108.354,115.546 L108.354,121 L107.526,121 L107.526,109.138 L110.928,109.138 C111.516003,109.138 112.049998,109.194999 112.53,109.309 C113.010002,109.423001 113.417998,109.605999 113.754,109.858 C114.090002,110.110001 114.350999,110.433998 114.537,110.83 C114.723001,111.226002 114.816,111.705997 114.816,112.27 C114.816,113.218005 114.543003,113.961997 113.997,114.502 C113.450997,115.042003 112.710005,115.371999 111.774,115.492 L115.05,121 L114.096,121 Z M5.9453125,131.625 C7.24740234,131.625 8.27473582,131.959632 9.02734375,132.628906 C9.77995168,133.29818 10.15625,134.174474 10.15625,135.257813 C10.15625,136.34636 9.77995168,137.221351 9.02734375,137.882813 C8.27473582,138.544274 7.24740234,138.875 5.9453125,138.875 L4.0234375,138.875 L4.0234375,141.398438 L5.2421875,141.632813 L5.2421875,143 L0.53125,143 L0.53125,141.632813 L1.7421875,141.398438 L1.7421875,133.234375 L0.53125,133 L0.53125,131.625 L1.7421875,131.625 L5.9453125,131.625 Z M4.0234375,137.117188 L5.9453125,137.117188 C6.58073234,137.117188 7.06119629,136.944012 7.38671875,136.597656 C7.71224121,136.2513 7.875,135.809899 7.875,135.273438 C7.875,134.72656 7.71224121,134.274741 7.38671875,133.917969 C7.06119629,133.561196 6.58073234,133.382813 5.9453125,133.382813 L4.0234375,133.382813 L4.0234375,137.117188 Z M21.28125,137.398438 C21.28125,139.065113 20.8046923,140.442703 19.8515625,141.53125 C18.8984327,142.619797 17.6510494,143.164063 16.109375,143.164063 C14.572909,143.164063 13.332036,142.619797 12.3867188,141.53125 C11.4414015,140.442703 10.96875,139.065113 10.96875,137.398438 L10.96875,137.226563 C10.96875,135.570304 11.4400995,134.195318 12.3828125,133.101563 C13.3255255,132.007807 14.5650965,131.460938 16.1015625,131.460938 C17.6432369,131.460938 18.8919223,132.007807 19.8476562,133.101563 C20.8033902,134.195318 21.28125,135.570304 21.28125,137.226563 L21.28125,137.398438 Z M19.0078125,137.210938 C19.0078125,136.033848 18.7630233,135.078129 18.2734375,134.34375 C17.7838517,133.609371 17.0599006,133.242188 16.1015625,133.242188 C15.1432244,133.242188 14.4283878,133.606767 13.9570312,134.335938 C13.4856747,135.065108 13.25,136.023432 13.25,137.210938 L13.25,137.398438 C13.25,138.59636 13.4882789,139.561194 13.9648438,140.292969 C14.4414086,141.024743 15.1562452,141.390625 16.109375,141.390625 C17.0729215,141.390625 17.7968726,141.024743 18.28125,140.292969 C18.7656274,139.561194 19.0078125,138.59636 19.0078125,137.398438 L19.0078125,137.210938 Z M33.8203125,131.625 L33.8203125,133 L32.6015625,133.234375 L32.6015625,143 L30.328125,143 L25.734375,135.34375 L25.6875,135.351563 L25.6875,141.398438 L26.90625,141.632813 L26.90625,143 L22.1953125,143 L22.1953125,141.632813 L23.40625,141.398438 L23.40625,133.234375 L22.1953125,133 L22.1953125,131.625 L23.40625,131.625 L25.6875,131.625 L30.28125,139.28125 L30.328125,139.273438 L30.328125,133.234375 L29.109375,133 L29.109375,131.625 L32.6015625,131.625 L33.8203125,131.625 Z M44.5703125,131.625 L44.5703125,134.65625 L42.8203125,134.65625 L42.7265625,133.382813 L40.6328125,133.382813 L40.6328125,141.398438 L41.8515625,141.632813 L41.8515625,143 L37.1328125,143 L37.1328125,141.632813 L38.3515625,141.398438 L38.3515625,133.382813 L36.265625,133.382813 L36.171875,134.65625 L34.4296875,134.65625 L34.4296875,131.625 L44.5703125,131.625 Z M55.7109375,137.398438 C55.7109375,139.065113 55.2343798,140.442703 54.28125,141.53125 C53.3281202,142.619797 52.0807369,143.164063 50.5390625,143.164063 C49.0025965,143.164063 47.7617235,142.619797 46.8164062,141.53125 C45.871089,140.442703 45.3984375,139.065113 45.3984375,137.398438 L45.3984375,137.226563 C45.3984375,135.570304 45.869787,134.195318 46.8125,133.101563 C47.755213,132.007807 48.994784,131.460938 50.53125,131.460938 C52.0729244,131.460938 53.3216098,132.007807 54.2773437,133.101563 C55.2330777,134.195318 55.7109375,135.570304 55.7109375,137.226563 L55.7109375,137.398438 Z M53.4375,137.210938 C53.4375,136.033848 53.1927108,135.078129 52.703125,134.34375 C52.2135392,133.609371 51.4895881,133.242188 50.53125,133.242188 C49.5729119,133.242188 48.8580753,133.606767 48.3867188,134.335938 C47.9153622,135.065108 47.6796875,136.023432 47.6796875,137.210938 L47.6796875,137.398438 C47.6796875,138.59636 47.9179664,139.561194 48.3945312,140.292969 C48.8710961,141.024743 49.5859327,141.390625 50.5390625,141.390625 C51.502609,141.390625 52.2265601,141.024743 52.7109375,140.292969 C53.1953149,139.561194 53.4375,138.59636 53.4375,137.398438 L53.4375,137.210938 Z M65.265625,135.257813 L63.5546875,135.257813 L63.2578125,133.695313 C63.0598948,133.570312 62.7708352,133.460938 62.390625,133.367188 C62.0104148,133.273437 61.606773,133.226563 61.1796875,133.226563 C60.5546844,133.226563 60.0716163,133.358072 59.7304688,133.621094 C59.3893212,133.884116 59.21875,134.223956 59.21875,134.640625 C59.21875,135.026044 59.3971336,135.342447 59.7539062,135.589844 C60.1106789,135.837241 60.7265581,136.098957 61.6015625,136.375 C62.8567771,136.72396 63.8085905,137.184893 64.4570312,137.757813 C65.105472,138.330732 65.4296875,139.083329 65.4296875,140.015625 C65.4296875,140.989588 65.0442747,141.75781 64.2734375,142.320313 C63.5026003,142.882815 62.4869855,143.164063 61.2265625,143.164063 C60.3255163,143.164063 59.5117224,143.020835 58.7851562,142.734375 C58.0585901,142.447915 57.4531274,142.052086 56.96875,141.546875 L56.96875,139.171875 L58.734375,139.171875 L58.9765625,140.789063 C59.2057303,140.976563 59.5169251,141.13151 59.9101562,141.253906 C60.3033874,141.376303 60.7421851,141.4375 61.2265625,141.4375 C61.8515656,141.4375 62.3268213,141.309897 62.6523438,141.054688 C62.9778662,140.799478 63.140625,140.458335 63.140625,140.03125 C63.140625,139.593748 62.9856786,139.242189 62.6757812,138.976563 C62.3658839,138.710936 61.8229205,138.460939 61.046875,138.226563 C59.6979099,137.835936 58.6770868,137.372399 57.984375,136.835938 C57.2916632,136.299476 56.9453125,135.565109 56.9453125,134.632813 C56.9453125,133.710933 57.3359336,132.957034 58.1171875,132.371094 C58.8984414,131.785153 59.8802024,131.484375 61.0625,131.46875 C61.9375044,131.46875 62.7343714,131.601561 63.453125,131.867188 C64.1718786,132.132814 64.7760392,132.486977 65.265625,132.929688 L65.265625,135.257813 Z M75.3671875,131.625 C76.7578195,131.625 77.9036413,132.069006 78.8046875,132.957031 C79.7057337,133.845057 80.15625,134.984368 80.15625,136.375 L80.15625,138.257813 C80.15625,139.653653 79.7057337,140.792964 78.8046875,141.675781 C77.9036413,142.558598 76.7578195,143 75.3671875,143 L70.25,143 L70.25,141.632813 L71.4609375,141.398438 L71.4609375,133.234375 L70.25,133 L70.25,131.625 L71.4609375,131.625 L75.3671875,131.625 Z M73.7421875,133.382813 L73.7421875,141.25 L75.25,141.25 C76.0677124,141.25 76.708331,140.973961 77.171875,140.421875 C77.635419,139.869789 77.8671875,139.148442 77.8671875,138.257813 L77.8671875,136.359375 C77.8671875,135.479162 77.635419,134.763024 77.171875,134.210938 C76.708331,133.658851 76.0677124,133.382813 75.25,133.382813 L73.7421875,133.382813 Z M88.6171875,138 L84.765625,138 L84.765625,141.25 L88.4375,141.25 L88.5390625,139.890625 L90.2734375,139.890625 L90.2734375,143 L81.2734375,143 L81.2734375,141.632813 L82.484375,141.398438 L82.484375,133.234375 L81.2734375,133 L81.2734375,131.625 L82.484375,131.625 L90.2578125,131.625 L90.2578125,134.742188 L88.5078125,134.742188 L88.40625,133.382813 L84.765625,133.382813 L84.765625,136.242188 L88.6171875,136.242188 L88.6171875,138 Z M105.429688,131.625 L105.429688,134.65625 L103.679688,134.65625 L103.585938,133.382813 L101.492188,133.382813 L101.492188,141.398438 L102.710938,141.632813 L102.710938,143 L97.9921875,143 L97.9921875,141.632813 L99.2109375,141.398438 L99.2109375,133.382813 L97.125,133.382813 L97.03125,134.65625 L95.2890625,134.65625 L95.2890625,131.625 L105.429688,131.625 Z M111.28125,131.625 C112.572923,131.625 113.585934,131.92057 114.320312,132.511719 C115.054691,133.102868 115.421875,133.919266 115.421875,134.960938 C115.421875,135.533857 115.268231,136.031248 114.960937,136.453125 C114.653644,136.875002 114.203128,137.216145 113.609375,137.476563 C114.281253,137.67448 114.764321,138.003904 115.058594,138.464844 C115.352866,138.925784 115.5,139.497392 115.5,140.179688 L115.5,140.757813 C115.5,141.007814 115.549479,141.201822 115.648437,141.339844 C115.747396,141.477865 115.911457,141.559896 116.140625,141.585938 L116.421875,141.625 L116.421875,143 L115.242187,143 C114.497392,143 113.97396,142.799481 113.671875,142.398438 C113.36979,141.997394 113.21875,141.47917 113.21875,140.84375 L113.21875,140.195313 C113.21875,139.643226 113.071616,139.209637 112.777344,138.894531 C112.483071,138.579426 112.067711,138.414063 111.53125,138.398438 L109.664062,138.398438 L109.664062,141.398438 L110.882812,141.632813 L110.882812,143 L106.171875,143 L106.171875,141.632813 L107.382812,141.398438 L107.382812,133.234375 L106.171875,133 L106.171875,131.625 L107.382812,131.625 L111.28125,131.625 Z M109.664062,136.640625 L111.242188,136.640625 C111.877607,136.640625 112.354165,136.50521 112.671875,136.234375 C112.989585,135.96354 113.148438,135.572919 113.148438,135.0625 C113.148438,134.552081 112.990887,134.144533 112.675781,133.839844 C112.360676,133.535155 111.895836,133.382813 111.28125,133.382813 L109.664062,133.382813 L109.664062,136.640625 Z M127.570312,137.398438 C127.570312,139.065113 127.093755,140.442703 126.140625,141.53125 C125.187495,142.619797 123.940112,143.164063 122.398438,143.164063 C120.861971,143.164063 119.621098,142.619797 118.675781,141.53125 C117.730464,140.442703 117.257812,139.065113 117.257812,137.398438 L117.257812,137.226563 C117.257812,135.570304 117.729162,134.195318 118.671875,133.101563 C119.614588,132.007807 120.854159,131.460938 122.390625,131.460938 C123.932299,131.460938 125.180985,132.007807 126.136719,133.101563 C127.092453,134.195318 127.570312,135.570304 127.570312,137.226563 L127.570312,137.398438 Z M125.296875,137.210938 C125.296875,136.033848 125.052086,135.078129 124.5625,134.34375 C124.072914,133.609371 123.348963,133.242188 122.390625,133.242188 C121.432287,133.242188 120.71745,133.606767 120.246094,134.335938 C119.774737,135.065108 119.539062,136.023432 119.539062,137.210938 L119.539062,137.398438 C119.539062,138.59636 119.777341,139.561194 120.253906,140.292969 C120.730471,141.024743 121.445308,141.390625 122.398438,141.390625 C123.361984,141.390625 124.085935,141.024743 124.570312,140.292969 C125.05469,139.561194 125.296875,138.59636 125.296875,137.398438 L125.296875,137.210938 Z M137.804688,135.460938 L136.109375,135.460938 L135.875,133.945313 C135.651041,133.721353 135.368491,133.544271 135.027344,133.414063 C134.686196,133.283854 134.283856,133.21875 133.820312,133.21875 C132.830724,133.21875 132.069013,133.578121 131.535156,134.296875 C131.001299,135.015629 130.734375,135.953119 130.734375,137.109375 L130.734375,137.507813 C130.734375,138.664068 130.999997,139.604163 131.53125,140.328125 C132.062503,141.052087 132.812495,141.414063 133.78125,141.414063 C134.229169,141.414063 134.639321,141.348959 135.011719,141.21875 C135.384116,141.088541 135.671874,140.911459 135.875,140.6875 L136.109375,139.171875 L137.804688,139.171875 L137.804688,141.421875 C137.346352,141.953128 136.761722,142.376301 136.050781,142.691406 C135.33984,143.006512 134.544275,143.164063 133.664062,143.164063 C132.138013,143.164063 130.888026,142.635422 129.914062,141.578125 C128.940099,140.520828 128.453125,139.164071 128.453125,137.507813 L128.453125,137.125 C128.453125,135.47395 128.937495,134.117193 129.90625,133.054688 C130.875005,131.992182 132.127596,131.460938 133.664062,131.460938 C134.544275,131.460938 135.338538,131.621092 136.046875,131.941406 C136.755212,132.26172 137.341144,132.684893 137.804688,133.210938 L137.804688,135.460938 Z M138.734375,141.632813 L139.546875,141.515625 L143.007812,131.625 L145.34375,131.625 L148.78125,141.515625 L149.59375,141.632813 L149.59375,143 L145.71875,143 L145.71875,141.632813 L146.507812,141.492188 L146.007812,139.929688 L142.320312,139.929688 L141.820312,141.492188 L142.609375,141.632813 L142.609375,143 L138.734375,143 L138.734375,141.632813 Z M142.859375,138.25 L145.46875,138.25 L144.1875,134.242188 L144.140625,134.242188 L142.859375,138.25 Z" id="LOCALIZAR-Copy" fill="#417505"></path>
                    </g>
                </g>
            </g>
        </g>
    </g>
</svg>