<?xml version="1.0" encoding="UTF-8" standalone="no"?>
<svg width="162px" height="148px" viewBox="0 0 162 148" version="1.1" xmlns="http://www.w3.org/2000/svg" xmlns:xlink="http://www.w3.org/1999/xlink" xmlns:sketch="http://www.bohemiancoding.com/sketch/ns">
    <!-- Generator: Sketch 3.3 (11970) - http://www.bohemiancoding.com/sketch -->
    <title>visualiza_extrato</title>
    <desc>Created with Sketch.</desc>
    <defs></defs>
    <g id="-Page-1" stroke="none" stroke-width="1" fill="none" fill-rule="evenodd" sketch:type="MSPage">
        <g id="-dashboard" sketch:type="MSArtboardGroup" transform="translate(-87.000000, -851.000000)">
            <g id="btn.extrato" sketch:type="MSLayerGroup" transform="translate(30.000000, 829.000000)">
                <g id="VISUALIZAR-+-Fill-165-+-VISUALIZAR" transform="translate(57.000000, 24.000000)" sketch:type="MSShapeGroup">
                    <g id="visualiza_extrato">
                        <path d="M71.0182927,23.5616438 C70.0567073,23.5616438 69.2804878,24.3090905 69.2804878,25.2300516 L69.2804878,86.3315923 C69.2804878,87.2525533 70.0567073,88 71.0182927,88 C71.9752439,88 72.7560976,87.2525533 72.7560976,86.3315923 L72.7560976,25.2300516 C72.7560976,24.3090905 71.9752439,23.5616438 71.0182927,23.5616438 L71.0182927,23.5616438 Z M54.7999383,37.369863 C53.841309,37.369863 53.0609756,38.1148804 53.0609756,39.0328482 L53.0609756,86.3370149 C53.0609756,87.2549827 53.841309,88 54.7999383,88 C55.7585675,88 56.5365854,87.2549827 56.5365854,86.3370149 L56.5365854,39.0328482 C56.5365854,38.1148804 55.7585675,37.369863 54.7999383,37.369863 L54.7999383,37.369863 Z M86.0792683,37.369863 C85.12,37.369863 84.3414634,38.1228941 84.3414634,39.050736 L84.3414634,86.319127 C84.3414634,87.2469689 85.12,88 86.0792683,88 C87.0385366,88 87.8170732,87.2469689 87.8170732,86.319127 L87.8170732,39.050736 C87.8170732,38.1228941 87.0385366,37.369863 86.0792683,37.369863 L86.0792683,37.369863 Z M39.7378049,47.7260274 C38.7785366,47.7260274 38,48.4954625 38,49.4435164 L38,86.282511 C38,87.2305649 38.7785366,88 39.7378049,88 C40.6970732,88 41.4756098,87.2305649 41.4756098,86.282511 L41.4756098,49.4435164 C41.4756098,48.4954625 40.6970732,47.7260274 39.7378049,47.7260274 L39.7378049,47.7260274 Z M122.57309,25.9079901 L122.446807,15.0401711 C122.442296,14.5759061 122.23934,14.1339615 121.89206,13.8192434 C121.54478,13.5067573 121.087001,13.3549784 120.611182,13.3906911 L109.669594,14.3080609 C108.738251,14.3861824 108.0482,15.1941821 108.124873,16.116016 C108.2038,17.0378499 109.03592,17.7007667 109.953732,17.6449657 L116.603927,17.0869548 L101.24109,33.2852237 L71.5350856,4.4807045 C70.8901362,3.85573236 69.8685906,3.83787602 69.2078558,4.44052772 L38.5502125,32.1937545 C37.8601618,32.8187267 37.8128054,33.8767152 38.4442243,34.5597205 C39.0756433,35.2427257 40.1445453,35.2873666 40.8323409,34.6646265 L70.3105839,7.98054844 L100.129342,36.8922057 C100.445052,37.2002277 100.871259,37.369863 101.313253,37.369863 C101.820643,37.3564708 102.255871,37.1578189 102.564815,36.8230124 L119.113817,19.3346225 L119.188234,25.9459348 C119.199509,26.8633046 119.952702,27.5998789 120.88179,27.5998789 C121.831173,27.5887187 122.582111,26.832056 122.57309,25.9079901 Z M99.9817073,47.7260274 C99.022439,47.7260274 98.2439024,48.4941958 98.2439024,49.440689 L98.2439024,86.2853384 C98.2439024,87.2318316 99.022439,88 99.9817073,88 C100.940976,88 101.719512,87.2318316 101.719512,86.2853384 L101.719512,49.440689 C101.719512,48.4941958 100.940976,47.7260274 99.9817073,47.7260274 L99.9817073,47.7260274 Z M116.203537,37.369863 C115.241951,37.369863 114.463415,38.1163187 114.463415,39.0360588 L114.463415,86.3338042 C114.463415,87.2535443 115.241951,88 116.203537,88 C117.162805,88 117.939024,87.2535443 117.939024,86.3338042 L117.939024,39.0360588 C117.939024,38.1163187 117.162805,37.369863 116.203537,37.369863 L116.203537,37.369863 Z" id="Fill-165" fill="#417505"></path>
                        <circle id="Oval-11" stroke="#417505" stroke-width="3" fill="#FFFFFF" cx="70" cy="7" r="7"></circle>
                        <circle id="Oval-12" stroke="#417505" stroke-width="3" fill="#FFFFFF" cx="101" cy="33" r="7"></circle>
                        <path d="M38.385,111.138 L39.267,111.138 L41.463,118.068 C41.6910011,118.788004 41.8979991,119.450997 42.084,120.057 C42.2700009,120.663003 42.4829988,121.325996 42.723,122.046 L42.795,122.046 C42.9150006,121.685998 43.0259995,121.344002 43.128,121.02 C43.2300005,120.695998 43.3289995,120.375002 43.425,120.057 C43.5210005,119.738998 43.6199995,119.418002 43.722,119.094 C43.8240005,118.769998 43.9289995,118.428002 44.037,118.068 L46.233,111.138 L47.079,111.138 L43.191,123 L42.309,123 L38.385,111.138 Z M48.897,111.138 L49.725,111.138 L49.725,123 L48.897,123 L48.897,111.138 Z M52.839,120.858 C53.2710022,121.350002 53.786997,121.739999 54.387,122.028 C54.987003,122.316001 55.6289966,122.46 56.313,122.46 C57.2250046,122.46 57.9449974,122.241002 58.473,121.803 C59.0010026,121.364998 59.265,120.792004 59.265,120.084 C59.265,119.711998 59.2080006,119.400001 59.094,119.148 C58.9799994,118.895999 58.827001,118.677001 58.635,118.491 C58.442999,118.304999 58.2180013,118.143001 57.96,118.005 C57.7019987,117.866999 57.4290014,117.732001 57.141,117.6 L55.341,116.79 C55.0769987,116.681999 54.8040014,116.550001 54.522,116.394 C54.2399986,116.237999 53.9820012,116.043001 53.748,115.809 C53.5139988,115.574999 53.3190008,115.299002 53.163,114.981 C53.0069992,114.662998 52.929,114.282002 52.929,113.838 C52.929,113.405998 53.0159991,113.013002 53.19,112.659 C53.3640009,112.304998 53.6039985,111.999001 53.91,111.741 C54.2160015,111.482999 54.5819979,111.282001 55.008,111.138 C55.4340021,110.993999 55.8929975,110.922 56.385,110.922 C57.1050036,110.922 57.7439972,111.062999 58.302,111.345 C58.8600028,111.627001 59.3189982,111.959998 59.679,112.344 L59.211,112.902 C58.8629983,112.529998 58.4550023,112.233001 57.987,112.011 C57.5189977,111.788999 56.985003,111.678 56.385,111.678 C55.592996,111.678 54.9570024,111.869998 54.477,112.254 C53.9969976,112.638002 53.757,113.153997 53.757,113.802 C53.757,114.150002 53.8229993,114.443999 53.955,114.684 C54.0870007,114.924001 54.254999,115.130999 54.459,115.305 C54.663001,115.479001 54.8849988,115.628999 55.125,115.755 C55.3650012,115.881001 55.5929989,115.992 55.809,116.088 L57.609,116.88 C57.9450017,117.024001 58.2629985,117.185999 58.563,117.366 C58.8630015,117.546001 59.1269989,117.755999 59.355,117.996 C59.5830011,118.236001 59.7659993,118.520998 59.904,118.851 C60.0420007,119.181002 60.111,119.573998 60.111,120.03 C60.111,120.486002 60.0210009,120.908998 59.841,121.299 C59.6609991,121.689002 59.4060017,122.024999 59.076,122.307 C58.7459984,122.589001 58.3470023,122.810999 57.879,122.973 C57.4109977,123.135001 56.8890029,123.216 56.313,123.216 C55.4489957,123.216 54.6810034,123.051002 54.009,122.721 C53.3369966,122.390998 52.7670023,121.962003 52.299,121.434 L52.839,120.858 Z M62.559,111.138 L63.387,111.138 L63.387,118.356 C63.387,119.148004 63.4739991,119.804997 63.648,120.327 C63.8220009,120.849003 64.0529986,121.268998 64.341,121.587 C64.6290014,121.905002 64.9619981,122.129999 65.34,122.262 C65.7180019,122.394001 66.1169979,122.46 66.537,122.46 C66.9690022,122.46 67.379998,122.394001 67.77,122.262 C68.160002,122.129999 68.5019985,121.905002 68.796,121.587 C69.0900015,121.268998 69.3269991,120.849003 69.507,120.327 C69.6870009,119.804997 69.777,119.148004 69.777,118.356 L69.777,111.138 L70.551,111.138 L70.551,118.446 C70.551,119.370005 70.4370011,120.137997 70.209,120.75 C69.9809989,121.362003 69.6810019,121.850998 69.309,122.217 C68.9369981,122.583002 68.5110024,122.840999 68.031,122.991 C67.5509976,123.141001 67.0530026,123.216 66.537,123.216 C66.0329975,123.216 65.5410024,123.141001 65.061,122.991 C64.5809976,122.840999 64.1550019,122.583002 63.783,122.217 C63.4109981,121.850998 63.1140011,121.362003 62.892,120.75 C62.6699989,120.137997 62.559,119.370005 62.559,118.446 L62.559,111.138 Z M79.101,118.23 L78.345,116.016 C78.1049988,115.307996 77.8770011,114.630003 77.661,113.982 C77.4449989,113.333997 77.235001,112.644004 77.031,111.912 L76.959,111.912 C76.754999,112.644004 76.5450011,113.333997 76.329,113.982 C76.1129989,114.630003 75.8850012,115.307996 75.645,116.016 L74.889,118.23 L79.101,118.23 Z M79.335,118.932 L74.637,118.932 L73.233,123 L72.405,123 L76.581,111.138 L77.409,111.138 L81.585,123 L80.721,123 L79.335,118.932 Z M83.475,111.138 L84.303,111.138 L84.303,122.28 L89.775,122.28 L89.775,123 L83.475,123 L83.475,111.138 Z M91.881,111.138 L92.709,111.138 L92.709,123 L91.881,123 L91.881,111.138 Z M95.355,122.514 L102.177,111.858 L95.949,111.858 L95.949,111.138 L103.221,111.138 L103.221,111.624 L96.381,122.28 L103.275,122.28 L103.275,123 L95.355,123 L95.355,122.514 Z M110.979,118.23 L110.223,116.016 C109.982999,115.307996 109.755001,114.630003 109.539,113.982 C109.322999,113.333997 109.113001,112.644004 108.909,111.912 L108.837,111.912 C108.632999,112.644004 108.423001,113.333997 108.207,113.982 C107.990999,114.630003 107.763001,115.307996 107.523,116.016 L106.767,118.23 L110.979,118.23 Z M111.213,118.932 L106.515,118.932 L105.111,123 L104.283,123 L108.459,111.138 L109.287,111.138 L113.463,123 L112.599,123 L111.213,118.932 Z M118.539,116.862 C119.595005,116.862 120.401997,116.649002 120.96,116.223 C121.518003,115.796998 121.797,115.146004 121.797,114.27 C121.797,113.381996 121.515003,112.755002 120.951,112.389 C120.386997,112.022998 119.583005,111.84 118.539,111.84 L116.181,111.84 L116.181,116.862 L118.539,116.862 Z M121.923,123 L118.701,117.546 L116.181,117.546 L116.181,123 L115.353,123 L115.353,111.138 L118.755,111.138 C119.343003,111.138 119.876998,111.194999 120.357,111.309 C120.837002,111.423001 121.244998,111.605999 121.581,111.858 C121.917002,112.110001 122.177999,112.433998 122.364,112.83 C122.550001,113.226002 122.643,113.705997 122.643,114.27 C122.643,115.218005 122.370003,115.961997 121.824,116.502 C121.277997,117.042003 120.537005,117.371999 119.601,117.492 L122.877,123 L121.923,123 Z M7.78515625,140 L3.93359375,140 L3.93359375,143.25 L7.60546875,143.25 L7.70703125,141.890625 L9.44140625,141.890625 L9.44140625,145 L0.44140625,145 L0.44140625,143.632813 L1.65234375,143.398438 L1.65234375,135.234375 L0.44140625,135 L0.44140625,133.625 L1.65234375,133.625 L9.42578125,133.625 L9.42578125,136.742188 L7.67578125,136.742188 L7.57421875,135.382813 L3.93359375,135.382813 L3.93359375,138.242188 L7.78515625,138.242188 L7.78515625,140 Z M10.4804688,143.632813 L11.4414062,143.445313 L14.4492188,139.265625 L11.5195312,135.195313 L10.5664062,135 L10.5664062,133.625 L14.9335938,133.625 L14.9335938,135 L14.0039062,135.101563 L15.7617188,137.890625 L17.5273438,135.101563 L16.6132812,135 L16.6132812,133.625 L20.9960938,133.625 L20.9960938,135 L20.0429688,135.195313 L17.1132812,139.265625 L20.1835938,143.4375 L21.1914062,143.632813 L21.1914062,145 L16.7148438,145 L16.7148438,143.632813 L17.6210938,143.539063 L15.7929688,140.664063 L13.9570312,143.539063 L14.8710938,143.632813 L14.8710938,145 L10.4804688,145 L10.4804688,143.632813 Z M31.9101562,133.625 L31.9101562,136.65625 L30.1601562,136.65625 L30.0664062,135.382813 L27.9726562,135.382813 L27.9726562,143.398438 L29.1914062,143.632813 L29.1914062,145 L24.4726562,145 L24.4726562,143.632813 L25.6914062,143.398438 L25.6914062,135.382813 L23.6054688,135.382813 L23.5117188,136.65625 L21.7695312,136.65625 L21.7695312,133.625 L31.9101562,133.625 Z M37.7617188,133.625 C39.0533919,133.625 40.0664026,133.92057 40.8007812,134.511719 C41.5351599,135.102868 41.9023438,135.919266 41.9023438,136.960938 C41.9023438,137.533857 41.7486995,138.031248 41.4414062,138.453125 C41.134113,138.875002 40.6835967,139.216145 40.0898438,139.476563 C40.7617221,139.67448 41.2447902,140.003904 41.5390625,140.464844 C41.8333348,140.925784 41.9804688,141.497392 41.9804688,142.179688 L41.9804688,142.757813 C41.9804688,143.007814 42.0299474,143.201822 42.1289062,143.339844 C42.2278651,143.477865 42.3919259,143.559896 42.6210938,143.585938 L42.9023438,143.625 L42.9023438,145 L41.7226562,145 C40.9778609,145 40.4544286,144.799481 40.1523438,144.398438 C39.8502589,143.997394 39.6992188,143.47917 39.6992188,142.84375 L39.6992188,142.195313 C39.6992188,141.643226 39.5520848,141.209637 39.2578125,140.894531 C38.9635402,140.579426 38.5481798,140.414063 38.0117188,140.398438 L36.1445312,140.398438 L36.1445312,143.398438 L37.3632812,143.632813 L37.3632812,145 L32.6523438,145 L32.6523438,143.632813 L33.8632812,143.398438 L33.8632812,135.234375 L32.6523438,135 L32.6523438,133.625 L33.8632812,133.625 L37.7617188,133.625 Z M36.1445312,138.640625 L37.7226562,138.640625 C38.3580761,138.640625 38.8346338,138.50521 39.1523438,138.234375 C39.4700537,137.96354 39.6289062,137.572919 39.6289062,137.0625 C39.6289062,136.552081 39.4713557,136.144533 39.15625,135.839844 C38.8411443,135.535155 38.3763052,135.382813 37.7617188,135.382813 L36.1445312,135.382813 L36.1445312,138.640625 Z M43.5351562,143.632813 L44.3476562,143.515625 L47.8085938,133.625 L50.1445312,133.625 L53.5820312,143.515625 L54.3945312,143.632813 L54.3945312,145 L50.5195312,145 L50.5195312,143.632813 L51.3085938,143.492188 L50.8085938,141.929688 L47.1210938,141.929688 L46.6210938,143.492188 L47.4101562,143.632813 L47.4101562,145 L43.5351562,145 L43.5351562,143.632813 Z M47.6601562,140.25 L50.2695312,140.25 L48.9882812,136.242188 L48.9414062,136.242188 L47.6601562,140.25 Z M60.2617188,133.625 C61.6523507,133.625 62.7981726,134.069006 63.6992188,134.957031 C64.6002649,135.845057 65.0507812,136.984368 65.0507812,138.375 L65.0507812,140.257813 C65.0507812,141.653653 64.6002649,142.792964 63.6992188,143.675781 C62.7981726,144.558598 61.6523507,145 60.2617188,145 L55.1445312,145 L55.1445312,143.632813 L56.3554688,143.398438 L56.3554688,135.234375 L55.1445312,135 L55.1445312,133.625 L56.3554688,133.625 L60.2617188,133.625 Z M58.6367188,135.382813 L58.6367188,143.25 L60.1445312,143.25 C60.9622437,143.25 61.6028623,142.973961 62.0664062,142.421875 C62.5299502,141.869789 62.7617188,141.148442 62.7617188,140.257813 L62.7617188,138.359375 C62.7617188,137.479162 62.5299502,136.763024 62.0664062,136.210938 C61.6028623,135.658851 60.9622437,135.382813 60.1445312,135.382813 L58.6367188,135.382813 Z M76.5664062,139.398438 C76.5664062,141.065113 76.0898485,142.442703 75.1367188,143.53125 C74.183589,144.619797 72.9362056,145.164063 71.3945312,145.164063 C69.8580652,145.164063 68.6171922,144.619797 67.671875,143.53125 C66.7265578,142.442703 66.2539062,141.065113 66.2539062,139.398438 L66.2539062,139.226563 C66.2539062,137.570304 66.7252557,136.195318 67.6679688,135.101563 C68.6106818,134.007807 69.8502527,133.460938 71.3867188,133.460938 C72.9283931,133.460938 74.1770786,134.007807 75.1328125,135.101563 C76.0885464,136.195318 76.5664062,137.570304 76.5664062,139.226563 L76.5664062,139.398438 Z M74.2929688,139.210938 C74.2929688,138.033848 74.0481795,137.078129 73.5585938,136.34375 C73.069008,135.609371 72.3450569,135.242188 71.3867188,135.242188 C70.4283806,135.242188 69.713544,135.606767 69.2421875,136.335938 C68.770831,137.065108 68.5351562,138.023432 68.5351562,139.210938 L68.5351562,139.398438 C68.5351562,140.59636 68.7734351,141.561194 69.25,142.292969 C69.7265649,143.024743 70.4414015,143.390625 71.3945312,143.390625 C72.3580777,143.390625 73.0820288,143.024743 73.5664062,142.292969 C74.0507837,141.561194 74.2929688,140.59636 74.2929688,139.398438 L74.2929688,139.210938 Z M86.5195313,133.625 C87.9101632,133.625 89.0559851,134.069006 89.9570313,134.957031 C90.8580774,135.845057 91.3085938,136.984368 91.3085938,138.375 L91.3085938,140.257813 C91.3085938,141.653653 90.8580774,142.792964 89.9570313,143.675781 C89.0559851,144.558598 87.9101632,145 86.5195313,145 L81.4023438,145 L81.4023438,143.632813 L82.6132813,143.398438 L82.6132813,135.234375 L81.4023438,135 L81.4023438,133.625 L82.6132813,133.625 L86.5195313,133.625 Z M84.8945312,135.382813 L84.8945312,143.25 L86.4023438,143.25 C87.2200562,143.25 87.8606748,142.973961 88.3242188,142.421875 C88.7877627,141.869789 89.0195312,141.148442 89.0195312,140.257813 L89.0195312,138.359375 C89.0195312,137.479162 88.7877627,136.763024 88.3242188,136.210938 C87.8606748,135.658851 87.2200562,135.382813 86.4023438,135.382813 L84.8945312,135.382813 Z M99.7695312,140 L95.9179688,140 L95.9179688,143.25 L99.5898438,143.25 L99.6914062,141.890625 L101.425781,141.890625 L101.425781,145 L92.4257812,145 L92.4257812,143.632813 L93.6367188,143.398438 L93.6367188,135.234375 L92.4257812,135 L92.4257812,133.625 L93.6367188,133.625 L101.410156,133.625 L101.410156,136.742188 L99.6601562,136.742188 L99.5585938,135.382813 L95.9179688,135.382813 L95.9179688,138.242188 L99.7695312,138.242188 L99.7695312,140 Z M111.980469,133.625 C113.282559,133.625 114.309892,133.959632 115.0625,134.628906 C115.815108,135.29818 116.191406,136.174474 116.191406,137.257813 C116.191406,138.34636 115.815108,139.221351 115.0625,139.882813 C114.309892,140.544274 113.282559,140.875 111.980469,140.875 L110.058594,140.875 L110.058594,143.398438 L111.277344,143.632813 L111.277344,145 L106.566406,145 L106.566406,143.632813 L107.777344,143.398438 L107.777344,135.234375 L106.566406,135 L106.566406,133.625 L107.777344,133.625 L111.980469,133.625 Z M110.058594,139.117188 L111.980469,139.117188 C112.615889,139.117188 113.096353,138.944012 113.421875,138.597656 C113.747397,138.2513 113.910156,137.809899 113.910156,137.273438 C113.910156,136.72656 113.747397,136.274741 113.421875,135.917969 C113.096353,135.561196 112.615889,135.382813 111.980469,135.382813 L110.058594,135.382813 L110.058594,139.117188 Z M116.910156,135 L116.910156,133.625 L121.621094,133.625 L121.621094,135 L120.402344,135.234375 L120.402344,143.398438 L121.621094,143.632813 L121.621094,145 L116.910156,145 L116.910156,143.632813 L118.128906,143.398438 L118.128906,135.234375 L116.910156,135 Z M122.488281,145 L122.488281,143.632813 L123.699219,143.398438 L123.699219,135.234375 L122.488281,135 L122.488281,133.625 L123.699219,133.625 L125.980469,133.625 L127.199219,133.625 L127.199219,135 L125.980469,135.234375 L125.980469,143.25 L129.191406,143.25 L129.300781,141.820313 L131.042969,141.820313 L131.042969,145 L122.488281,145 Z M131.863281,145 L131.863281,143.632813 L133.074219,143.398438 L133.074219,135.234375 L131.863281,135 L131.863281,133.625 L133.074219,133.625 L135.355469,133.625 L136.574219,133.625 L136.574219,135 L135.355469,135.234375 L135.355469,143.25 L138.566406,143.25 L138.675781,141.820313 L140.417969,141.820313 L140.417969,145 L131.863281,145 Z M141.121094,143.632813 L141.933594,143.515625 L145.394531,133.625 L147.730469,133.625 L151.167969,143.515625 L151.980469,143.632813 L151.980469,145 L148.105469,145 L148.105469,143.632813 L148.894531,143.492188 L148.394531,141.929688 L144.707031,141.929688 L144.207031,143.492188 L144.996094,143.632813 L144.996094,145 L141.121094,145 L141.121094,143.632813 Z M145.246094,140.25 L147.855469,140.25 L146.574219,136.242188 L146.527344,136.242188 L145.246094,140.25 Z M161.371094,137.257813 L159.660156,137.257813 L159.363281,135.695313 C159.165364,135.570312 158.876304,135.460938 158.496094,135.367188 C158.115884,135.273437 157.712242,135.226563 157.285156,135.226563 C156.660153,135.226563 156.177085,135.358072 155.835938,135.621094 C155.49479,135.884116 155.324219,136.223956 155.324219,136.640625 C155.324219,137.026044 155.502602,137.342447 155.859375,137.589844 C156.216148,137.837241 156.832027,138.098957 157.707031,138.375 C158.962246,138.72396 159.914059,139.184893 160.5625,139.757813 C161.210941,140.330732 161.535156,141.083329 161.535156,142.015625 C161.535156,142.989588 161.149743,143.75781 160.378906,144.320313 C159.608069,144.882815 158.592454,145.164063 157.332031,145.164063 C156.430985,145.164063 155.617191,145.020835 154.890625,144.734375 C154.164059,144.447915 153.558596,144.052086 153.074219,143.546875 L153.074219,141.171875 L154.839844,141.171875 L155.082031,142.789063 C155.311199,142.976563 155.622394,143.13151 156.015625,143.253906 C156.408856,143.376303 156.847654,143.4375 157.332031,143.4375 C157.957034,143.4375 158.43229,143.309897 158.757812,143.054688 C159.083335,142.799478 159.246094,142.458335 159.246094,142.03125 C159.246094,141.593748 159.091147,141.242189 158.78125,140.976563 C158.471353,140.710936 157.928389,140.460939 157.152344,140.226563 C155.803379,139.835936 154.782556,139.372399 154.089844,138.835938 C153.397132,138.299476 153.050781,137.565109 153.050781,136.632813 C153.050781,135.710933 153.441402,134.957034 154.222656,134.371094 C155.00391,133.785153 155.985671,133.484375 157.167969,133.46875 C158.042973,133.46875 158.83984,133.601561 159.558594,133.867188 C160.277347,134.132814 160.881508,134.486977 161.371094,134.929688 L161.371094,137.257813 Z" id="VISUALIZAR" fill="#417505"></path>
                    </g>
                </g>
            </g>
        </g>
    </g>
</svg>